<svg width="299" height="156" viewBox="0 0 299 156" fill="none" xmlns="http://www.w3.org/2000/svg">
<path fill-rule="evenodd" clip-rule="evenodd" d="M216.208 0.661355C219.445 0.871261 222.57 1.94548 225.267 3.77524C228.141 5.26238 230.59 7.47517 232.377 10.2007C235.307 15.4851 236.418 21.6092 235.536 27.606C234.654 33.6029 231.829 39.1307 227.507 43.3167C223.56 46.7053 219.187 49.5474 214.504 51.7686C207.237 55.2447 200.818 60.3082 195.705 66.5967C188.73 75.0459 183.259 84.663 179.536 95.0171C176.716 102.665 175.602 110.852 176.273 118.989C176.781 123.406 176.781 127.868 176.273 132.285C175.498 138.709 172.386 144.607 167.548 148.822C162.709 153.038 156.493 155.266 150.12 155.071C143.694 155.305 137.421 153.05 132.574 148.764C127.726 144.477 124.666 138.48 124.015 131.988C123.506 127.571 123.506 123.109 124.015 118.692C124.662 110.556 123.548 102.374 120.752 94.7205C118.906 89.5786 116.608 84.6159 113.885 79.8925C111.161 75.139 108.049 70.6254 104.583 66.399C100.973 61.9981 96.7387 58.1668 92.018 55.0308C89.8587 53.7755 87.503 52.9062 85.0536 52.4606C82.472 52.8945 80.0133 53.8892 77.8457 55.3768C73.3233 58.4875 69.257 62.2316 65.7676 66.4978C62.3012 70.7243 59.1896 75.2379 56.4655 79.9913C53.7619 84.7251 51.4645 89.6861 49.5985 94.8194C46.7939 102.471 45.6961 110.658 46.3842 118.791C47.0239 124.653 46.5946 130.584 45.1179 136.288C43.6099 141.861 40.2952 146.756 35.709 150.182C31.1228 153.608 25.5328 155.365 19.8415 155.169C16.6271 155.034 13.5038 154.045 10.783 152.303C7.93273 150.774 5.5177 148.527 3.76987 145.778C0.726142 140.56 -0.52808 134.465 0.203282 128.447C0.934643 122.428 3.61036 116.826 7.81214 112.514C12.0302 109.107 16.6423 106.236 21.5461 103.963C28.8102 100.483 35.2289 95.4202 40.3451 89.1353C43.8428 84.9221 46.9716 80.4071 49.6959 75.6418C52.3658 70.8974 54.6462 65.9379 56.5142 60.8137C59.3306 53.1651 60.4449 44.9789 59.7772 36.8418C59.2155 32.4282 59.2155 27.9596 59.7772 23.546C61.5792 14.402 66.7416 0.710782 85.151 0.710782C103.56 0.710782 108.431 13.9572 110.573 23.8425C111.163 28.2542 111.163 32.7266 110.573 37.1383C109.906 45.2754 111.02 53.4617 113.836 61.1103C115.701 66.2442 117.999 71.2052 120.703 75.9383C123.425 80.7175 126.571 85.2342 130.103 89.4318C133.904 94.0645 138.409 98.0523 143.447 101.245C145.556 102.534 147.886 103.406 150.314 103.815C152.971 103.324 155.505 102.299 157.766 100.8C162.502 97.6656 166.753 93.8344 170.38 89.4318C173.826 85.1071 176.905 80.4939 179.584 75.6418C182.289 70.9087 184.587 65.9476 186.451 60.8137C189.243 53.1588 190.356 44.9781 189.714 36.8418C189.215 31.9027 189.346 26.9188 190.104 22.0137C191.857 13.1663 202.133 -0.0800467 216.208 0.661355ZM298.808 130.208C298.808 144.021 287.775 155.218 274.165 155.218C260.555 155.218 249.522 144.021 249.522 130.208C249.522 116.396 260.555 105.199 274.165 105.199C287.775 105.199 298.808 116.396 298.808 130.208Z" fill="url(#paint0_linear_402_3)"/>
<defs>
<linearGradient id="paint0_linear_402_3" x1="-1.24504" y1="11.6735" x2="310.012" y2="44.791" gradientUnits="userSpaceOnUse">
<stop stop-color="#F6384E"/>
<stop offset="0.53125" stop-color="#FF9A06"/>
<stop offset="0.979167" stop-color="#FFD706"/>
</linearGradient>
</defs>
</svg>
